<?xml version="1.0" standalone="no"?>
<!DOCTYPE svg PUBLIC "-//W3C//DTD SVG 20010904//EN"
 "http://www.w3.org/TR/2001/REC-SVG-20010904/DTD/svg10.dtd">
<svg version="1.0" xmlns="http://www.w3.org/2000/svg"
 width="1000.000000pt" height="1000.000000pt" viewBox="0 0 1000.000000 1000.000000"
 preserveAspectRatio="xMidYMid meet">
<metadata>
Created by potrace 1.14, written by Peter Selinger 2001-2017
</metadata>
<g transform="translate(0.000000,1000.000000) scale(0.100000,-0.100000)"
fill="#ED230D" stroke="none">
<path d="M4172 9689 c-13 -5 -123 -13 -245 -19 -121 -5 -223 -13 -226 -18 -3
-5 -66 -12 -139 -14 -78 -4 -138 -10 -145 -17 -6 -6 -39 -11 -74 -11 -34 0
-82 -6 -105 -14 -24 -8 -72 -18 -108 -22 -36 -3 -70 -11 -77 -16 -6 -5 -46
-12 -87 -15 -42 -3 -76 -9 -76 -14 0 -4 -30 -11 -67 -14 -38 -4 -72 -11 -78
-15 -5 -5 -37 -13 -70 -19 -32 -6 -64 -16 -69 -21 -6 -6 -26 -10 -46 -10 -20
0 -45 -7 -56 -15 -10 -8 -30 -15 -44 -15 -14 0 -34 -6 -45 -14 -11 -7 -35 -17
-53 -21 -18 -4 -45 -13 -60 -21 -15 -8 -35 -14 -44 -14 -10 0 -18 -4 -18 -10
0 -5 -5 -10 -11 -10 -6 0 -27 -7 -47 -16 -99 -44 -119 -53 -139 -59 -13 -3
-23 -11 -23 -16 0 -5 -10 -9 -23 -9 -13 0 -27 -4 -33 -9 -12 -13 -112 -69
-146 -82 -16 -6 -28 -15 -28 -19 0 -4 -13 -13 -30 -19 -16 -5 -30 -15 -30 -20
0 -6 -8 -11 -19 -11 -10 0 -24 -7 -31 -15 -7 -8 -19 -15 -26 -15 -8 0 -14 -4
-14 -9 0 -8 -54 -46 -83 -59 -5 -2 -23 -19 -41 -37 -18 -18 -46 -41 -62 -51
-16 -10 -48 -37 -72 -59 -82 -76 -122 -115 -122 -119 0 -2 -37 -41 -82 -88
-46 -46 -90 -94 -98 -107 -8 -13 -21 -29 -28 -37 -6 -7 -12 -15 -12 -18 0 -3
-16 -22 -35 -43 -19 -21 -35 -46 -35 -55 0 -10 -7 -18 -15 -18 -8 0 -15 -9
-15 -20 0 -11 -4 -20 -10 -20 -5 0 -12 -11 -16 -25 -3 -14 -10 -25 -16 -25 -5
0 -14 -13 -19 -30 -6 -16 -15 -30 -20 -30 -5 0 -9 -9 -9 -19 0 -10 -7 -21 -15
-25 -8 -3 -15 -12 -15 -19 0 -8 -9 -24 -20 -37 -11 -13 -20 -29 -20 -37 0 -8
-7 -21 -15 -29 -8 -9 -15 -26 -15 -40 0 -13 -4 -24 -10 -24 -5 0 -13 -12 -16
-27 -4 -15 -13 -34 -21 -41 -7 -7 -13 -22 -13 -31 0 -10 -7 -24 -15 -31 -8 -7
-15 -27 -15 -45 0 -18 -7 -38 -15 -45 -8 -7 -15 -22 -15 -34 0 -12 -9 -38 -20
-59 -11 -20 -20 -48 -20 -62 0 -14 -4 -25 -9 -25 -5 0 -13 -25 -16 -55 -4 -30
-11 -53 -15 -50 -4 3 -10 -18 -14 -45 -4 -27 -13 -65 -21 -84 -8 -19 -15 -55
-15 -78 -1 -24 -7 -54 -15 -68 -8 -14 -14 -53 -15 -91 0 -36 -5 -70 -11 -76
-12 -12 -35 -159 -50 -323 -6 -63 -15 -117 -19 -120 -4 -3 -10 -66 -14 -140
-4 -74 -11 -137 -15 -140 -4 -3 -11 -50 -15 -105 -3 -55 -13 -124 -21 -152
-10 -37 -14 -113 -15 -254 0 -138 -4 -208 -13 -222 -16 -30 -23 -1021 -7
-1197 6 -69 15 -201 20 -295 4 -93 13 -185 19 -203 5 -18 13 -84 17 -145 4
-62 11 -115 15 -118 5 -3 12 -67 16 -142 3 -75 9 -134 14 -132 4 3 10 -34 14
-82 3 -49 10 -99 15 -113 5 -14 14 -65 20 -115 6 -49 15 -94 20 -100 4 -5 10
-41 13 -80 2 -38 9 -89 16 -112 21 -80 32 -128 43 -180 5 -29 14 -53 18 -53 5
0 12 -25 15 -55 4 -30 11 -55 15 -55 4 0 10 -18 14 -40 3 -22 10 -40 15 -40 5
0 14 -20 20 -45 6 -25 16 -45 21 -45 6 0 10 -16 10 -35 0 -19 4 -35 9 -35 5 0
13 -10 16 -22 9 -32 47 -112 55 -118 4 -3 10 -15 14 -27 4 -13 12 -23 17 -23
5 0 9 -9 9 -19 0 -11 7 -26 15 -34 7 -8 17 -26 20 -40 4 -14 13 -28 21 -31 8
-3 14 -17 14 -31 0 -16 6 -25 15 -25 8 0 15 -7 15 -15 0 -9 9 -25 20 -37 11
-12 20 -28 20 -35 0 -7 5 -13 10 -13 6 0 10 -7 10 -15 0 -8 7 -15 15 -15 8 0
15 -8 15 -18 0 -10 16 -33 35 -52 19 -19 35 -41 35 -47 0 -7 3 -13 8 -13 4 0
20 -20 35 -45 16 -25 33 -45 38 -45 5 0 9 -7 9 -15 0 -8 7 -15 15 -15 8 0 15
-7 15 -15 0 -8 7 -15 15 -15 8 0 15 -4 15 -9 0 -13 105 -121 119 -121 6 0 11
-4 11 -10 0 -11 108 -120 120 -120 5 0 10 -3 12 -8 2 -4 26 -25 53 -47 28 -21
55 -44 60 -49 6 -6 37 -29 70 -51 33 -22 63 -44 66 -48 7 -9 41 -30 75 -46 12
-5 23 -13 25 -18 4 -7 38 -27 124 -72 16 -9 32 -19 35 -23 3 -3 17 -9 32 -13
15 -4 29 -13 32 -21 3 -8 16 -14 30 -14 13 0 26 -7 30 -15 3 -8 13 -15 23 -15
10 0 38 -10 63 -22 25 -12 54 -25 65 -29 11 -4 41 -17 67 -28 26 -12 58 -21
72 -21 15 0 26 -4 26 -9 0 -5 18 -11 41 -15 23 -4 48 -13 56 -21 8 -8 31 -15
51 -15 20 0 50 -7 66 -15 15 -8 44 -15 62 -15 19 0 50 -6 69 -14 18 -8 60 -18
92 -21 32 -4 63 -11 69 -16 6 -5 43 -12 82 -15 40 -4 72 -10 72 -14 0 -4 44
-10 97 -14 53 -4 102 -10 107 -15 6 -5 67 -12 136 -16 69 -4 150 -11 180 -16
30 -6 129 -14 220 -19 91 -5 212 -14 270 -19 136 -13 1909 -13 2015 0 44 5
148 13 230 19 83 5 170 14 195 19 25 5 95 12 155 16 61 4 115 11 121 16 6 5
52 12 102 15 50 4 89 10 87 14 -3 5 28 11 68 15 39 4 77 11 82 15 6 4 30 10
55 14 25 3 65 13 90 20 67 21 131 37 170 43 19 3 40 9 45 14 13 10 163 59 181
59 8 0 14 5 14 10 0 6 7 10 16 10 16 0 102 33 146 56 14 8 37 14 51 14 13 0
30 7 37 15 7 8 23 15 36 15 13 0 27 6 31 13 4 6 37 27 73 46 136 70 160 83
166 92 3 5 14 9 25 9 10 0 19 7 19 15 0 8 5 15 10 15 10 0 59 31 86 55 6 6 22
17 34 25 12 8 33 23 45 33 13 9 28 17 34 17 6 0 11 4 11 9 0 6 14 18 30 28 17
9 33 25 36 35 3 10 10 18 15 18 9 0 18 7 82 65 20 19 42 35 47 35 6 0 10 7 10
15 0 8 7 15 15 15 8 0 15 7 15 15 0 8 7 15 15 15 8 0 15 7 15 15 0 9 7 18 15
21 8 3 17 14 20 25 4 11 10 17 15 14 5 -3 12 4 15 16 4 12 20 35 36 50 16 16
29 33 29 39 0 5 7 10 15 10 8 0 15 4 15 10 0 5 16 26 35 46 19 19 35 42 35 50
0 8 10 25 23 37 12 12 29 34 36 50 8 15 18 27 23 27 4 0 8 6 8 14 0 8 7 16 15
20 8 3 15 12 15 21 0 8 3 15 8 15 4 0 21 26 37 58 17 31 33 58 37 60 4 2 10
19 14 38 3 19 10 34 14 34 4 0 13 12 19 28 6 15 22 47 36 71 14 24 25 55 25
68 0 12 4 23 8 23 5 0 22 33 37 73 16 39 32 76 37 81 4 6 8 19 8 30 1 12 9 39
20 61 11 22 19 50 20 61 0 12 7 35 15 50 8 16 15 40 15 54 0 14 7 34 15 44 8
11 15 39 15 62 0 25 5 44 12 46 12 4 21 41 49 203 6 33 15 65 21 72 5 6 12 38
15 70 3 32 11 77 19 101 8 23 14 67 14 97 0 30 7 80 15 111 8 31 17 111 20
178 4 66 11 151 16 188 12 76 25 461 38 1093 11 548 -8 1279 -39 1452 -6 35
-13 102 -16 149 -2 48 -11 118 -19 156 -8 38 -15 94 -15 123 0 30 -6 74 -14
97 -8 24 -17 79 -20 122 -3 43 -11 85 -17 92 -6 7 -14 37 -19 66 -17 109 -41
213 -50 216 -6 2 -10 22 -10 44 0 22 -6 54 -14 71 -7 18 -18 52 -25 77 -28
104 -35 125 -43 131 -5 3 -12 25 -15 48 -3 22 -9 41 -13 41 -4 0 -12 17 -18
38 -19 67 -40 116 -51 120 -6 2 -11 17 -11 33 0 16 -4 29 -9 29 -5 0 -15 16
-21 35 -6 19 -15 35 -20 35 -5 0 -11 14 -15 30 -4 17 -10 30 -15 30 -4 0 -11
12 -15 27 -3 15 -10 30 -13 33 -4 3 -20 31 -37 62 -16 32 -33 58 -37 58 -5 0
-8 7 -8 15 0 9 -7 18 -15 21 -8 4 -15 15 -15 25 0 11 -13 33 -30 49 -16 16
-32 40 -36 54 -3 14 -9 24 -14 21 -4 -2 -12 7 -18 20 -7 14 -16 25 -22 25 -5
0 -10 6 -10 14 0 8 -7 16 -15 20 -8 3 -15 13 -15 21 0 9 -4 14 -9 10 -5 -3
-12 3 -16 14 -3 10 -21 36 -40 57 -19 22 -49 56 -67 76 -18 20 -39 37 -45 37
-7 1 -13 6 -13 11 0 6 -15 24 -32 41 -18 16 -51 47 -73 68 -22 21 -61 54 -86
73 -26 19 -53 40 -60 47 -45 38 -63 51 -71 51 -5 0 -22 14 -38 30 -16 17 -38
30 -49 30 -10 0 -21 7 -25 15 -3 8 -12 15 -21 15 -8 0 -15 5 -15 10 0 6 -11
15 -25 20 -13 5 -42 21 -65 35 -70 44 -169 95 -185 95 -8 0 -15 4 -15 9 0 5
-10 13 -22 16 -13 4 -55 22 -94 41 -39 19 -77 34 -83 34 -6 0 -11 5 -11 10 0
6 -9 10 -21 10 -11 0 -30 6 -42 12 -12 7 -40 18 -62 24 -57 17 -106 35 -137
50 -14 8 -40 14 -56 14 -17 0 -33 4 -37 9 -3 5 -31 15 -63 22 -31 7 -61 16
-67 20 -5 4 -34 10 -62 14 -29 4 -53 10 -53 14 0 5 -32 11 -71 14 -39 3 -76
10 -82 15 -7 5 -43 12 -80 16 -38 4 -94 13 -125 21 -31 8 -86 15 -123 15 -41
0 -69 4 -71 11 -2 7 -59 13 -163 17 -88 2 -162 8 -165 12 -3 3 -161 12 -353
19 -191 7 -375 17 -410 22 -83 12 -1335 11 -1365 -2z m693 -1958 c294 -52 792
-195 957 -276 43 -20 93 -51 111 -69 l35 -31 11 -160 c50 -700 304 -2215 507
-3030 104 -417 240 -826 340 -1026 l23 -46 -15 -149 c-17 -173 -35 -247 -66
-269 -46 -32 -234 -14 -433 40 -249 68 -455 156 -547 235 -70 61 -93 134 -148
480 -25 157 -58 308 -102 468 l-31 114 -56 -6 c-187 -22 -920 -247 -1094 -335
l-90 -46 -82 -225 c-45 -124 -97 -261 -115 -305 -18 -44 -45 -129 -61 -188
-32 -120 -51 -154 -106 -188 -46 -29 -111 -29 -224 1 -177 45 -587 231 -656
296 -34 32 -35 36 -28 81 11 77 60 217 180 522 62 157 122 316 134 353 l22 67
-40 53 c-61 82 -81 132 -81 212 l0 70 49 45 c26 26 109 82 185 125 75 44 136
80 136 81 0 1 176 602 390 1335 l390 1334 0 185 c0 204 9 242 60 269 37 19
294 9 445 -17z"/>
<path d="M5076 6200 c-111 -271 -418 -1247 -441 -1401 l-7 -47 59 20 c65 21
414 109 509 128 88 17 87 15 69 99 -79 378 -131 742 -163 1156 l-7 90 -19 -45z"/>
</g>
</svg>
